<?xml version="1.0" standalone="no"?>
<!DOCTYPE svg PUBLIC "-//W3C//DTD SVG 20010904//EN"
 "http://www.w3.org/TR/2001/REC-SVG-20010904/DTD/svg10.dtd">
<svg version="1.0" xmlns="http://www.w3.org/2000/svg"
 width="240.000000pt" height="240.000000pt" viewBox="0 0 240.000000 240.000000"
 preserveAspectRatio="xMidYMid meet">
<metadata>
Created by potrace 1.11, written by Peter Selinger 2001-2013
</metadata>
<g transform="translate(0.000000,240.000000) scale(0.100000,-0.100000)"
fill="#000000" stroke="none">
<path d="M0 1945 l0 -455 123 -2 c67 0 131 0 143 1 20 1 21 -4 23 -134 1 -89
-1 -135 -8 -136 -6 -1 -15 -3 -21 -4 -5 -1 -66 -3 -135 -4 l-125 -1 0 -310 0
-310 150 0 149 0 3 153 3 152 145 0 145 0 3 -148 3 -147 299 0 300 0 2 298 3
297 145 3 c79 1 148 6 152 10 5 5 9 70 10 145 l1 137 138 0 138 0 3 -142 3
-143 303 -3 302 -2 0 600 0 600 -1200 0 -1200 0 0 -455z m900 -895 l0 -150
-150 0 -150 0 0 150 0 150 150 0 150 0 0 -150z"/>
<path d="M245 1270 c-3 -5 -1 -10 4 -10 6 0 11 5 11 10 0 6 -2 10 -4 10 -3 0
-8 -4 -11 -10z"/>
<path d="M1761 1243 c7 -10 15 -20 16 -22 2 -2 3 5 3 17 0 14 -6 22 -16 22
-14 0 -15 -3 -3 -17z"/>
<path d="M245 1240 c-3 -5 -1 -10 4 -10 6 0 11 5 11 10 0 6 -2 10 -4 10 -3 0
-8 -4 -11 -10z"/>
<path d="M1800 750 l0 -150 150 0 150 0 0 150 0 150 -150 0 -150 0 0 -150z"/>
</g>
</svg>
